<?xml version="1.0" encoding="utf-8"?>
<!-- Generator: Adobe Illustrator 24.0.0, SVG Export Plug-In . SVG Version: 6.00 Build 0)  -->
<svg version="1.1" id="Layer_1" xmlns="http://www.w3.org/2000/svg" xmlns:xlink="http://www.w3.org/1999/xlink" x="0px" y="0px"
	 viewBox="0 0 1011.59 841.89" style="enable-background:new 0 0 1011.59 841.89;" xml:space="preserve">
<style type="text/css">
	.st0{fill:#00B19D;}
	.st1{fill:#636466;}
	.st2{fill:#939598;}
</style>
<g>
	<path class="st0" d="M150.41,480.24H99.97c0.21-16.96-2.55-72.12,18.68-132.89c26.75-76.56,69.62-97.02,69.62-97.02
		s-22.61,40.77-31.38,101.1C149.37,403.27,150.07,464.13,150.41,480.24z"/>
	<polygon class="st0" points="176.81,525.08 228.6,525.08 228.6,560.02 176.81,584.69 	"/>
	<polygon class="st0" points="176.81,606.27 228.6,581.6 228.6,611.5 166.24,611.5 	"/>
	<polygon class="st0" points="120.51,611.5 105.11,611.5 105.11,525.08 156.89,525.08 156.89,594.17 	"/>
	<rect x="70.05" y="626.99" class="st0" width="158.55" height="31.07"/>
	<path class="st0" d="M227.4,513.67H83.2c-5.5,0-9.96-4.56-9.96-10.19c0-5.63,4.46-10.19,9.96-10.19H227.4V513.67z"/>
	<rect x="209.88" y="214.45" class="st0" width="18.33" height="11.82"/>
	<path class="st0" d="M193.64,197.16c0-3.29,2.6-5.95,5.81-5.95h28.75v11.89h-28.75C196.25,203.11,193.64,200.45,193.64,197.16z"/>
	<path class="st0" d="M195.87,133.25c0-3.28,2.6-5.94,5.81-5.94h26.52v11.89h-26.52C198.48,139.2,195.87,136.54,195.87,133.25z"/>
	<rect x="209.88" y="147.69" class="st0" width="18.33" height="36.19"/>
	<path class="st0" d="M223.69,116.08c-3.42-2.01-5.44-5.84-5.44-9.88V58.79c0-4.3,2.6-8.27,6.6-9.55c1.18-0.38,2.18-0.44,3.17-0.34
		c0.11,0.01,0.19,0.1,0.19,0.21v67.95C226.84,117.21,225.49,117.14,223.69,116.08z"/>
	<path class="st0" d="M174.86,435.79c0-26.68,2.03-106.21,18.79-146.67c16.76-40.46,34.95-48.58,34.95-48.58v239.7h-53.74
		C174.86,480.24,174.86,462.47,174.86,435.79z"/>
</g>
<g>
	<g>
		<path class="st1" d="M112.04,757.57c0,11.04-6.17,16.58-18.52,16.61c-12.31,0-18.47-5.54-18.47-16.61v-48.27
			c0-11.04,6.16-16.56,18.47-16.56c12.34,0,18.52,5.52,18.52,16.56v10.6H99.17v-10.6c0-3.55-1.87-5.32-5.6-5.32h-0.09
			c-3.7,0-5.55,1.77-5.55,5.32v48.27c0,3.55,1.87,5.32,5.6,5.32c3.76,0,5.64-1.77,5.64-5.32v-10.6h12.87V757.57z"/>
		<path class="st1" d="M158.58,757.57c0,11.04-6.17,16.58-18.52,16.61c-12.31,0-18.47-5.54-18.47-16.61v-48.27
			c0-11.04,6.16-16.56,18.47-16.56c12.34,0,18.52,5.52,18.52,16.56V757.57z M145.7,709.31c0-3.55-1.87-5.32-5.6-5.32h-0.09
			c-3.7,0-5.55,1.77-5.55,5.32v48.27c0,3.55,1.87,5.32,5.6,5.32c3.76,0,5.64-1.77,5.64-5.32V709.31z"/>
		<path class="st1" d="M169.5,693.84h12.87l12.19,45.77v-45.77h11.92v78.89h-12.87l-11.74-44.31v44.31H169.5V693.84z"/>
		<path class="st1" d="M254.39,757.57c0,11.04-6.17,16.58-18.52,16.61c-12.31,0-18.47-5.54-18.47-16.61v-48.27
			c0-11.04,6.16-16.56,18.47-16.56c12.34,0,18.52,5.52,18.52,16.56v10.6h-12.87v-10.6c0-3.55-1.87-5.32-5.6-5.32h-0.09
			c-3.7,0-5.55,1.77-5.55,5.32v48.27c0,3.55,1.87,5.32,5.6,5.32c3.76,0,5.64-1.77,5.64-5.32v-18.51h-5.6v-11.24h18.47V757.57z"/>
		<path class="st1" d="M265.31,693.84h18.74c11.43,0,17.15,5.54,17.15,16.61v11.83c0,6.95-3.38,11.52-10.14,13.74l14.47,36.71h-14.1
			l-11.6-34.71l-1.64,0.23v34.48h-12.87V693.84z M278.18,705.03v22.61h2.96c1.79,0,3.02-0.11,3.69-0.32c2.33-0.82,3.5-2.5,3.5-5.05
			v-11.83c0-3.61-1.87-5.42-5.6-5.42H278.18z"/>
		<path class="st1" d="M310.35,693.84h33.39v11.19h-20.52v22.61h17.65v11.28h-17.65v22.57h20.52v11.24h-33.39V693.84z"/>
		<path class="st1" d="M352.38,709.31c0-11.04,6.16-16.56,18.47-16.56c12.34,0,18.52,5.52,18.52,16.56v10.6h-12.87v-10.6
			c0-3.55-1.87-5.32-5.6-5.32h-0.09c-3.7,0-5.55,1.77-5.55,5.32v7.14c0,3.52,4.02,7.82,12.06,12.92
			c8.04,5.06,12.06,11.14,12.06,18.24v9.96c0,11.07-6.16,16.61-18.47,16.61c-12.34-0.03-18.52-5.56-18.52-16.61v-10.6h12.87v10.6
			c0,3.55,1.88,5.32,5.64,5.32c3.73,0,5.6-1.77,5.6-5.32v-9.01c0-3.82-4.02-8.28-12.06-13.38c-8.04-5.06-12.06-11.22-12.06-18.47
			V709.31z"/>
		<path class="st1" d="M436.36,757.57c0,11.04-6.17,16.58-18.52,16.61c-12.31,0-18.47-5.54-18.47-16.61v-48.27
			c0-11.04,6.16-16.56,18.47-16.56c12.34,0,18.52,5.52,18.52,16.56V757.57z M423.49,709.31c0-3.55-1.87-5.32-5.6-5.32h-0.09
			c-3.7,0-5.55,1.77-5.55,5.32v48.27c0,3.55,1.87,5.32,5.6,5.32c3.76,0,5.64-1.77,5.64-5.32V709.31z"/>
		<path class="st1" d="M470.39,693.84h19.84c11.43,0,17.15,5.54,17.15,16.61v45.72c0,11.01-5.99,16.53-17.97,16.56h-19.02V693.84z
			 M483.27,705.03v56.46h5.64c3.73,0,5.6-1.77,5.6-5.32v-45.72c0-3.61-1.87-5.42-5.6-5.42H483.27z"/>
		<path class="st1" d="M518.3,693.84h33.39v11.19h-20.52v22.61h17.65v11.28h-17.65v22.57h20.52v11.24H518.3V693.84z"/>
		<path class="st1" d="M584.35,772.72v-78.89h12.87v67.65h20.52v11.24H584.35z"/>
		<path class="st1" d="M661.38,744.74l4.18,27.98h-13.01l-2.5-16.74H636.9l-2.55,16.74h-12.97l4.18-27.89l9.1-51h17.65
			L661.38,744.74z M648.36,744.74l-4.91-32.85l-4.91,32.85H648.36z"/>
		<path class="st1" d="M696.4,693.84h12.87l12.19,45.77v-45.77h11.92v78.89h-12.87l-11.74-44.31v44.31H696.4V693.84z"/>
		<path class="st1" d="M781.11,744.74l4.18,27.98h-13.01l-2.5-16.74h-13.15l-2.55,16.74h-12.97l4.18-27.89l9.1-51h17.65
			L781.11,744.74z M768.1,744.74l-4.91-32.85l-4.91,32.85H768.1z"/>
		<path class="st1" d="M829.11,757.57c0,11.04-6.17,16.58-18.51,16.61c-12.32,0-18.47-5.54-18.47-16.61v-48.27
			c0-11.04,6.16-16.56,18.47-16.56c12.34,0,18.51,5.52,18.51,16.56v10.6h-12.87v-10.6c0-3.55-1.87-5.32-5.6-5.32h-0.09
			c-3.7,0-5.55,1.77-5.55,5.32v48.27c0,3.55,1.87,5.32,5.6,5.32c3.76,0,5.64-1.77,5.64-5.32v-10.6h12.87V757.57z"/>
		<path class="st1" d="M839.8,693.84h12.87v78.89H839.8V693.84z"/>
		<path class="st1" d="M901.26,757.57c0,11.04-6.17,16.58-18.52,16.61c-12.31,0-18.47-5.54-18.47-16.61v-48.27
			c0-11.04,6.16-16.56,18.47-16.56c12.34,0,18.52,5.52,18.52,16.56V757.57z M882.38,690.61h-7.14l6.46-11.51h10.1L882.38,690.61z
			 M888.39,709.31c0-3.55-1.87-5.32-5.6-5.32h-0.09c-3.7,0-5.55,1.77-5.55,5.32v48.27c0,3.55,1.87,5.32,5.6,5.32
			c3.76,0,5.64-1.77,5.64-5.32V709.31z"/>
		<path class="st1" d="M911.73,693.84h12.87l12.19,45.77v-45.77h11.92v78.89h-12.87l-11.74-44.31v44.31h-12.37V693.84z"/>
	</g>
</g>
<g>
	<g>
		<path class="st2" d="M262.47,242.21h103.66c59.76,0,89.63,28.93,89.63,86.78v238.95c0,57.54-31.31,86.39-93.91,86.54h-99.38
			V242.21z M329.76,300.7v295.06h29.48c19.5,0,29.24-9.27,29.24-27.82V328.99c0-18.86-9.75-28.29-29.24-28.29H329.76z"/>
		<path class="st2" d="M700.42,508.26l21.87,146.22h-68l-13.08-87.49h-68.71l-13.32,87.49h-67.76l21.87-145.74l47.55-266.53h92.25
			L700.42,508.26z M632.43,508.26L606.75,336.6l-25.68,171.66H632.43z"/>
		<path class="st2" d="M757.96,323.05c0-57.69,32.17-86.54,96.53-86.54c64.51,0,96.77,28.85,96.77,86.54v55.4h-67.29v-55.4
			c0-18.55-9.75-27.82-29.24-27.82h-0.48c-19.34,0-29,9.27-29,27.82v37.33c0,18.39,21,40.89,63,67.52
			c42,26.47,63.01,58.25,63.01,95.34v52.07c0,57.86-32.18,86.78-96.53,86.78c-64.51-0.16-96.77-29.08-96.77-86.78v-55.4h67.29v55.4
			c0,18.55,9.83,27.82,29.48,27.82c19.5,0,29.24-9.27,29.24-27.82v-47.08c0-19.97-21-43.27-63.01-69.9c-42-26.47-63-58.64-63-96.53
			V323.05z"/>
	</g>
</g>
</svg>
